<!-- <svg width="262" height="224" fill="none" xmlns="http://www.w3.org/2000/svg"><path d="M16.769 137.193c11.792 7.47 21.443 18.456 31.918 27.628 12.058 10.559 20.995 22.068 28.582 36.165 1.149 2.136 7.21 15.574.848 12.629" stroke="#fff" stroke-linecap="round"/><path d="M32.949 153.254c3.017-10.383 13.707-17.008 22.408-22.344 3.992-2.449 17.502-14.458 21.123-8.859 8.483 13.121 5.32 18.466-4.585 29.368-5.94 6.537-11.773 9.802-18.437 15.13-.658.526-2.735 4.025-1.542 3.608 7.96-2.787 15.631-6.114 23.772-8.435 7.534-2.149 15.214-3.322 22.29-6.844 10.346-5.151 16.141-10.691 18.028-22.252 2.306-14.128 3.922-27.107-2.707-40.255-1.613-3.2-3.389-7.907-7.184-9.043-11.392-3.409 5.617 25.662 6.299 26.856 7.815 13.684 16.155 27.689 26.405 39.716 3.896 4.571 11.694 14.078 18.924 13.379 16.515-1.595 5.722-42.519 4.132-50.252-4.53-22.037-17.742-43.77-33.13-60.03-1.951-2.062-8.3-7.523-6.816-5.104 5.201 8.481 11.865 16.288 18.652 23.513 4.501 4.791 9.432 10.06 14.936 13.777 2.75 1.858-2.955-5.987-4.955-8.635-3.881-5.137-7.567-10.334-10.933-15.822-2.858-4.661.907-.739 2.683.812 12.922 11.283 25.683 22.973 39.476 33.2 4.028 2.988.209-5.742.101-6.068-3.943-11.928-8.736-23.7-14.014-35.095-3.299-7.12-6.878-14.277-11.063-20.932-1.561-2.482-3.216-3.448-3.645.734-1.699 16.537 12.942 44.938 31.603 45.743 10.038.433 21.092-5.903 14.52-16.619-10.684-17.42-24.976 29.508-26.808 34.873-1.261 3.694-7.153 5.033-4.642 9.128 3.988 6.502 14.361 3.355 19.989 1.871 15.657-4.126 30.165-11.519 44.124-19.551 3.477-2 11.151-3.432 9.671-7.16-.845-2.129-4.563-1.29-6.815-.872-8.039 1.494-21.41 6.309-28.08 8.756-25.049 9.19-50.374 19.022-73.703 32.095-8.067 4.52-16.739 9.761-22.489 17.206-1.221 1.58-6.712 9.307-1.154 6.578 7.76-3.809 14.978-8.912 22.346-13.431" stroke="#fff" stroke-linecap="round"/></svg> -->

<svg xmlns="http://www.w3.org/2000/svg" width="262" height="224" viewBox="0 0 262 224" fill="none">
<path d="M16.769 137.193C28.5609 144.663 38.2121 155.649 48.6872 164.821C60.7449 175.38 69.6823 186.889 77.2688 200.986C78.4179 203.122 84.4785 216.56 78.1171 213.615" stroke="white" stroke-linecap="round"/>
<path d="M32.9486 153.254C35.9664 142.871 46.6563 136.246 55.3573 130.91C59.3495 128.461 72.8594 116.452 76.4798 122.051C84.9631 135.172 81.7999 140.517 71.8948 151.419C65.9546 157.956 60.1215 161.221 53.4581 166.549C52.8 167.075 50.7232 170.574 51.9162 170.157C59.876 167.37 67.5473 164.043 75.6877 161.722C83.2215 159.573 90.9024 158.4 97.9776 154.878C108.324 149.727 114.119 144.187 116.006 132.626C118.312 118.498 119.928 105.519 113.299 92.3705C111.686 89.1707 109.91 84.4639 106.115 83.3281C94.7225 79.9191 111.732 108.99 112.414 110.184C120.229 123.868 128.569 137.873 138.819 149.9C142.715 154.471 150.513 163.978 157.743 163.279C174.258 161.684 163.465 120.76 161.875 113.027C157.345 90.99 144.133 69.2563 128.745 52.9969C126.794 50.9353 120.445 45.4736 121.929 47.8932C127.13 56.3743 133.794 64.1806 140.581 71.4057C145.082 76.197 150.013 81.466 155.517 85.1834C158.267 87.0407 152.562 79.1964 150.562 76.5485C146.681 71.4108 142.995 66.2141 139.629 60.7258C136.771 56.0647 140.536 59.9875 142.312 61.5381C155.234 72.821 167.995 84.5109 181.788 94.7389C185.816 97.7257 181.997 88.9964 181.889 88.6697C177.946 76.7423 173.153 64.9698 167.875 53.5747C164.576 46.4544 160.997 39.2982 156.812 32.6432C155.251 30.1607 153.596 29.1948 153.167 33.3773C151.468 49.9143 166.109 78.3151 184.77 79.1203C194.808 79.5533 205.862 73.2173 199.29 62.5013C188.606 45.0805 174.314 92.0086 172.482 97.3744C171.221 101.068 165.329 102.407 167.84 106.502C171.828 113.004 182.201 109.857 187.829 108.373C203.486 104.247 217.994 96.8543 231.953 88.8218C235.43 86.8212 243.104 85.3897 241.624 81.6616C240.779 79.533 237.061 80.3712 234.809 80.7897C226.77 82.2836 213.399 87.0987 206.729 89.5461C181.68 98.7368 156.355 108.568 133.026 121.641C124.959 126.161 116.287 131.402 110.537 138.847C109.316 140.427 103.825 148.154 109.383 145.425C117.143 141.616 124.361 136.513 131.729 131.994" stroke="white" stroke-linecap="round"/>
</svg>